<svg id="Layer_1" data-name="Layer 1" xmlns="http://www.w3.org/2000/svg" viewBox="0 0 1361.18 148" style="fill:#e6edf3"><defs><style>.cls-1{fill:#e00;}.cls-2{fill:#e6edf3;}.cls-3{fill:#f25022;}.cls-4{fill:#7fba00;}.cls-5{fill:#00a4ef;}.cls-6{fill:#ffb900;}.cls-7{fill:#ef5024;}.cls-8{fill:#80b942;}.cls-9{fill:#309ed8;}.cls-10{fill:#fcb614;}</style></defs><title>Logo-Red_Hat-Microsoft-A-Standard-RGB</title><path d="M699.51,146.07a2.25,2.25,0,0,1-2.25-2.25V4.18a2.25,2.25,0,1,1,4.5,0V143.82A2.25,2.25,0,0,1,699.51,146.07Z"/><path class="cls-1" d="M161.52,73.57c1.73,8.19,1.73,9.05,1.73,10.13,0,14-15.74,21.77-36.43,21.77C80,105.47,39.08,78.1,39.08,60a18.45,18.45,0,0,1,1.51-7.33C23.77,53.52,2,56.54,2,75.72,2,107.2,76.59,146,135.66,146c45.27,0,56.69-20.48,56.69-36.65,0-12.72-11-27.16-30.83-35.78M129,85c12.51,0,30.61-2.58,30.61-17.46a14,14,0,0,0-.31-3.42l-7.44-32.36c-1.73-7.12-3.24-10.35-15.74-16.6C126.39,10.19,105.26,2,99,2c-5.82,0-7.54,7.54-14.44,7.54-6.68,0-11.64-5.6-17.89-5.6-6,0-9.92,4.09-12.94,12.5,0,0-8.41,23.72-9.49,27.16A6.43,6.43,0,0,0,44,45.54C44,54.76,80.33,85,129,85"/><path fill="#1b1b1b" d="M161.52,73.57c1.73,8.19,1.73,9.05,1.73,10.13,0,14-15.74,21.77-36.43,21.77C80,105.47,39.08,78.1,39.08,60a18.45,18.45,0,0,1,1.51-7.33l3.66-9.06A6.43,6.43,0,0,0,44,45.54C44,54.76,80.33,85,129,85c12.51,0,30.61-2.58,30.61-17.46a14,14,0,0,0-.31-3.42l2.25,9.46Z"/><path d="M227.52,111.24h18.09V84.42h13.78l13.88,26.82h20.19l-16.2-29.45a22.28,22.28,0,0,0,13.89-20.72c0-13.25-10.42-23.45-26-23.45H227.52v73.62Zm36-58.16c6,0,9.36,3.78,9.36,8.31s-3.37,8.31-9.36,8.31H245.61V53.08Zm29.34,30.39c0,16.2,13.25,28.82,30.29,28.82,9.36,0,16.19-2.53,23.24-8.41l-11.25-10c-2.63,2.74-6.53,4.21-11.15,4.21a14.37,14.37,0,0,1-13.67-8.83h39.64V85.05c0-17.67-11.88-30.39-28.08-30.39a28.57,28.57,0,0,0-29,28.81m28.71-14.93c5.36,0,9.88,3.47,11.67,8.83H310c1.68-5.57,5.89-8.83,11.57-8.83m77.19,42.7h16.83V33.94l-17,3.68V58.55a28.27,28.27,0,0,0-14.2-3.68c-16.19,0-28.92,12.51-28.92,28.5A28.26,28.26,0,0,0,383.8,112a25.1,25.1,0,0,0,14.93-4.83v4.1ZM372.12,83.37c0-8,6.31-14.1,14.62-14.1a17.2,17.2,0,0,1,11.78,4.32V93a16.36,16.36,0,0,1-11.78,4.42c-8.2,0-14.62-6.1-14.62-14.09m68.93,27.87h18.09V82.42h30.29v28.82h18.09V37.62H489.43V65.91H459.14V37.62H441.05v73.62Zm92.45.94c6,0,10.83-1.26,15.35-4.31v3.37h16.83V75.58c0-13.56-9.15-21-24.4-21-8.52,0-16.93,2-26,6.1l6.1,12.52c6.52-2.74,12-4.42,16.83-4.42,7,0,10.62,2.73,10.62,8.31v2.73a49.48,49.48,0,0,0-12.62-1.58c-14.3,0-22.93,6-22.93,16.73,0,9.78,7.78,17.24,20.2,17.24m-5.2-17.56c0-3.68,3.68-5.47,9.25-5.47a43.12,43.12,0,0,1,10.1,1.26v7.15A21.5,21.5,0,0,1,537,100.19c-5.47,0-8.73-2.1-8.73-5.57m52.94-.32c0,11.89,7.15,17.67,20.19,17.67a52,52,0,0,0,11.89-1.68V96.51a24.8,24.8,0,0,1-7.68,1.16c-5.36,0-7.36-1.68-7.36-6.73V69.8h15.56V55.6H598.28v-18l-17,3.68V55.6H570V69.8h11.25V94.3Z"/><path class="cls-2" d="M1023.77,37.28v73.44H1011V53.15h-.21L988,110.72h-8.45L956.22,53.15h-.16v57.57H944.28V37.28h18.29l21.1,54.44h.3l22.28-54.44Zm10.66,5.58a6.78,6.78,0,0,1,2.23-5.15,7.53,7.53,0,0,1,5.3-2.07,7.42,7.42,0,0,1,5.43,2.12,6.9,6.9,0,0,1,2.15,5.1,6.62,6.62,0,0,1-2.2,5.07,7.59,7.59,0,0,1-5.38,2,7.46,7.46,0,0,1-5.35-2.07A6.74,6.74,0,0,1,1034.43,42.86Zm13.68,15.21v52.65h-12.4V58.07Zm37.59,43.64a17.2,17.2,0,0,0,6.09-1.28,25.89,25.89,0,0,0,6.15-3.38v11.52a24.78,24.78,0,0,1-6.74,2.56,36.64,36.64,0,0,1-8.27.87q-11.62,0-18.89-7.35t-7.28-18.77q0-12.7,7.43-20.92t21-8.22a28.62,28.62,0,0,1,7,.9,23.08,23.08,0,0,1,5.66,2.07V71.59a25.33,25.33,0,0,0-5.87-3.25,16.82,16.82,0,0,0-6.12-1.15A15.53,15.53,0,0,0,1074.12,72q-4.5,4.76-4.5,12.85t4.32,12.45Q1078.27,101.71,1085.7,101.71Zm47.52-44.51a15.39,15.39,0,0,1,2.67.21,10.54,10.54,0,0,1,2,.51V70.46a11.19,11.19,0,0,0-2.85-1.35,13.93,13.93,0,0,0-4.53-.64,9.63,9.63,0,0,0-7.71,3.84q-3.15,3.84-3.15,11.83v26.58h-12.39V58.07h12.39v8.3h.21a14.57,14.57,0,0,1,5.12-6.74A13.9,13.9,0,0,1,1133.22,57.2Zm5.34,28q0-13.05,7.37-20.69t20.49-7.63q12.35,0,19.28,7.35T1192.64,84q0,12.79-7.38,20.38T1165.19,112q-12.24,0-19.44-7.2T1138.56,85.16Zm12.9-.41q0,8.25,3.74,12.6t10.7,4.36q6.76,0,10.3-4.36t3.53-12.9q0-8.51-3.66-12.83t-10.27-4.33q-6.81,0-10.57,4.53T1151.46,84.75Zm59.62-12.85a5.29,5.29,0,0,0,1.69,4.17q1.68,1.52,7.47,3.82,7.42,3,10.42,6.68a13.86,13.86,0,0,1,3,9,14.43,14.43,0,0,1-5.71,11.93q-5.71,4.52-15.44,4.51a37.15,37.15,0,0,1-7.25-.79,32.31,32.31,0,0,1-6.73-2V97a30,30,0,0,0,7.27,3.74,21.37,21.37,0,0,0,7.07,1.39,12.61,12.61,0,0,0,6.19-1.18,4.21,4.21,0,0,0,2-4,5.47,5.47,0,0,0-2.07-4.32c-1.38-1.18-4-2.54-7.86-4.08q-6.87-2.86-9.73-6.45a14.09,14.09,0,0,1-2.87-9.11,14.4,14.4,0,0,1,5.66-11.71q5.65-4.57,14.67-4.58a35.49,35.49,0,0,1,6.2.61,27.19,27.19,0,0,1,5.73,1.59V70.72a26.83,26.83,0,0,0-5.73-2.82,19.31,19.31,0,0,0-6.51-1.17,9.48,9.48,0,0,0-5.5,1.38A4.36,4.36,0,0,0,1211.08,71.9ZM1239,85.16q0-13.05,7.37-20.69t20.49-7.63q12.33,0,19.28,7.35T1293.07,84q0,12.79-7.38,20.38T1265.62,112q-12.24,0-19.44-7.2T1239,85.16Zm12.9-.41q0,8.25,3.74,12.6t10.7,4.36q6.76,0,10.3-4.36t3.53-12.9q0-8.51-3.66-12.83t-10.27-4.33q-6.81,0-10.57,4.53T1251.89,84.75Zm82.29-16.54h-18.45v42.51h-12.55V68.21h-8.81V58.07h8.81V50.75a18.23,18.23,0,0,1,5.4-13.6,19,19,0,0,1,13.85-5.3,31.41,31.41,0,0,1,4,.23,15.17,15.17,0,0,1,3.07.69v10.7a14.21,14.21,0,0,0-2.15-.87,11.17,11.17,0,0,0-3.53-.51,7.45,7.45,0,0,0-6,2.44q-2.1,2.43-2.1,7.19v6.35h18.45V46.24l12.45-3.79V58.07h12.55V68.21h-12.55V92.85q0,4.86,1.77,6.86t5.55,2a8.1,8.1,0,0,0,2.59-.52,12,12,0,0,0,2.64-1.23v10.25a14.85,14.85,0,0,1-3.92,1.23,27.21,27.21,0,0,1-5.4.56q-7.84,0-11.76-4.17t-3.92-12.58Z"/><rect class="cls-3" x="785.17" y="12.8" width="58.17" height="58.17"/><rect class="cls-4" x="849.39" y="12.8" width="58.17" height="58.17"/><rect class="cls-5" x="785.17" y="77.03" width="58.17" height="58.17"/><rect class="cls-6" x="849.39" y="77.03" width="58.17" height="58.17"/><rect class="cls-7" x="785.17" y="12.8" width="58.17" height="58.17"/><rect class="cls-8" x="849.39" y="12.8" width="58.17" height="58.17"/><rect class="cls-9" x="785.17" y="77.03" width="58.17" height="58.17"/><rect class="cls-10" x="849.39" y="77.03" width="58.17" height="58.17"/></svg>